# xmcd CD database file
#
# Track frame offsets:
#	150
#	86004
#	142436
#
# Disc length: 2509 seconds
#
# Revision: 0
# Processed by: cddbd v1.5.2PL0 Copyright (c) Steve Scherf et al.
# Submitted via: CDex 1.73
#
DISCID=2909cb03
DTITLE=Marc Ducret - tower-bridge
DYEAR=2012
DGENRE=Jazz
TTITLE0=Real Thing #3
TTITLE1=Softly Her Tower Crumbled in the Sweet Silent Sun
TTITLE2=L'Ombra di Verdi
EXTD=YEAR: 2012
EXTT0=
EXTT1=
EXTT2=
PLAYORDER=
